PathFileType	4	(X/Y/Z)	/Users/itak/Documents/Research/Walk-IL/dataset/trc/00247_00009.trc
DataRate	CameraRate	NumFrames	NumMarkers	Units	OrigDataRate	OrigDataStartFrame	OrigNumFrames
100.000000	100.000000	4	53	mm	100.000000	149	598
Frame#	Time	RPSI			LPSI			L3			STRN			T10			C7			CLAV			RBAK			LBAK			LSHO			LUPA			LAEL			LAOL			LWTS			LWPS			LFRA			LIFD			LHPS			LHTS			RSHO			RUPA			RAEL			RAOL			RWTS			RWPS			RFRA			RIFD			RHTS			RHPS			RBHD			LFHD			RFHD			LBHD			LHIP			RHIP			RASI			LASI			LKNE			LTHI			LANK			LTIP			LTOE			LMT1			LMT5			LHEE			RKNE			RTHI			RANK			RTIP			RTOE			RMT1			RMT5			RHEE			
		X1	Y1	Z1	X2	Y2	Z2	X3	Y3	Z3	X4	Y4	Z4	X5	Y5	Z5	X6	Y6	Z6	X7	Y7	Z7	X8	Y8	Z8	X9	Y9	Z9	X10	Y10	Z10	X11	Y11	Z11	X12	Y12	Z12	X13	Y13	Z13	X14	Y14	Z14	X15	Y15	Z15	X16	Y16	Z16	X17	Y17	Z17	X18	Y18	Z18	X19	Y19	Z19	X20	Y20	Z20	X21	Y21	Z21	X22	Y22	Z22	X23	Y23	Z23	X24	Y24	Z24	X25	Y25	Z25	X26	Y26	Z26	X27	Y27	Z27	X28	Y28	Z28	X29	Y29	Z29	X30	Y30	Z30	X31	Y31	Z31	X32	Y32	Z32	X33	Y33	Z33	X34	Y34	Z34	X35	Y35	Z35	X36	Y36	Z36	X37	Y37	Z37	X38	Y38	Z38	X39	Y39	Z39	X40	Y40	Z40	X41	Y41	Z41	X42	Y42	Z42	X43	Y43	Z43	X44	Y44	Z44	X45	Y45	Z45	X46	Y46	Z46	X47	Y47	Z47	X48	Y48	Z48	X49	Y49	Z49	X50	Y50	Z50	X51	Y51	Z51	X52	Y52	Z52	X53	Y53	Z53	

150	1.49	-1513.716186523438	1058.400756835938	-338.7650451660156	-1495.995727539062	1063.080200195312	-457.7568054199219	-1503.500244140625	1135.707885742188	-416.5078125	-1261.887817382812	1318.572509765625	-389.0343627929688	-1511.761352539062	1263.14599609375	-414.4068603515625	-1448.108764648438	1523.832153320312	-414.6484069824219	-1284.818969726562	1436.41796875	-391.9966430664062	-1533.7275390625	1387.33251953125	-348.3869934082031	-1456.029174804688	1484.491455078125	-526.2581176757812	-1361.6708984375	1482.745239257812	-571.929443359375	-1382.934326171875	1362.37646484375	-649.1426391601562	-1363.401000976562	1151.605590820312	-669.69189453125	-1441.531982421875	1136.026977539062	-633.8023681640625	-1284.244750976562	918.4457397460938	-593.9942626953125	-1295.582153320312	900.7537231445312	-676.2408447265625	-1339.291748046875	1044.330932617188	-677.6007080078125	-1278.837890625	723.1212158203125	-596.4940185546875	-1277.852783203125	812.9568481445312	-669.4959716796875	-1244.259643554688	818.6304931640625	-609.1737670898438	-1411.380126953125	1485.885375976562	-237.7495880126953	-1438.242309570312	1421.614624023438	-173.0735931396484	-1464.015014648438	1139.940063476562	-135.9379730224609	-1488.552612304688	1134.369384765625	-227.7657775878906	-1323.495361328125	925.213134765625	-169.8661041259766	-1381.542602539062	910.4059448242188	-109.186279296875	-1438.177368164062	1071.276123046875	-121.3228607177734	-1308.240844726562	732.8062133789062	-176.2021789550781	-1284.709838867188	804.3568725585938	-152.1517639160156	-1340.0908203125	804.3307495117188	-104.5004653930664	-1422.354370117188	1675.702880859375	-375.5174255371094	-1203.71484375	1726.216796875	-412.5696716308594	-1231.287109375	1724.014526367188	-316.4749755859375	-1343.1650390625	1685.475952148438	-490.7754516601562	-1380.817749023438	995.0853881835938	-584.22216796875	-1431.426391601562	1013.587585449219	-219.5198974609375	-1329.963500976562	1053.037963867188	-245.0371246337891	-1284.474731445312	1032.399169921875	-523.7677612304688	-1370.145263671875	507.8658142089844	-534.88232421875	-1363.483154296875	651.5233764648438	-567.4776000976562	-1454.527099609375	38.23329162597656	-522.9478759765625	-1420.415649414062	286.728759765625	-540.5415649414062	-1244.053466796875	45.81113433837891	-451.6114501953125	-1315.11572265625	42.09334564208984	-414.0217590332031	-1325.459228515625	39.05970001220703	-530.9096069335938	-1519.504638671875	44.62590789794922	-475.3479919433594	-1400.675659179688	519.2499389648438	-257.7003173828125	-1381.998413085938	786.1414184570312	-206.4021759033203	-1477.445068359375	41.88559341430664	-297.4420166015625	-1394.001953125	402.3111877441406	-277.8411865234375	-1262.282836914062	46.79941177368164	-319.1094360351562	-1313.85986328125	42.00115203857422	-367.5296325683594	-1369.169921875	42.78952407836914	-261.2648010253906	-1533.539428710938	38.0455322265625	-361.3435363769531	
151	1.5	-1513.64453125	1058.360595703125	-338.4554138183594	-1495.84130859375	1063.091430664062	-457.4006958007812	-1503.338500976562	1135.778076171875	-416.1600646972656	-1261.608154296875	1318.442260742188	-388.5316162109375	-1511.462036132812	1263.234252929688	-414.0221862792969	-1447.588500976562	1523.860107421875	-414.1348571777344	-1284.440795898438	1436.303955078125	-391.4761352539062	-1533.347412109375	1387.405517578125	-347.9680786132812	-1455.513549804688	1484.587890625	-525.7674560546875	-1361.130737304688	1482.784301757812	-571.3975219726562	-1382.4482421875	1362.482666015625	-648.69189453125	-1362.946411132812	1151.740966796875	-669.3704223632812	-1441.08642578125	1136.135986328125	-633.5551147460938	-1283.94970703125	918.45849609375	-593.8041381835938	-1295.159057617188	900.8680419921875	-676.0988159179688	-1338.86572265625	1044.463256835938	-677.3673706054688	-1278.744995117188	723.2530517578125	-596.5177001953125	-1277.375122070312	813.0657348632812	-669.3809814453125	-1243.937133789062	818.5938720703125	-609.0128173828125	-1411.002563476562	1485.806518554688	-237.2653503417969	-1437.940063476562	1421.5263671875	-172.6224822998047	-1463.809692382812	1139.847778320312	-135.6112823486328	-1488.509155273438	1134.3544921875	-227.5394592285156	-1323.110595703125	925.1993408203125	-169.7141723632812	-1381.436157226562	910.289306640625	-109.1360855102539	-1438.013916015625	1071.166381835938	-121.0695343017578	-1307.987060546875	732.85595703125	-176.2712249755859	-1284.465942382812	804.357421875	-152.1536407470703	-1339.848388671875	804.2579956054688	-104.5031051635742	-1421.5439453125	1675.771118164062	-374.9725952148438	-1202.878173828125	1725.857177734375	-412.131103515625	-1230.411865234375	1723.778564453125	-316.0037231445312	-1342.407104492188	1685.388916015625	-490.2734069824219	-1380.62255859375	995.1739501953125	-583.8692626953125	-1431.344604492188	1013.531127929688	-219.1799468994141	-1329.846923828125	1052.973266601562	-244.7153930664062	-1284.233642578125	1032.429809570312	-523.4443359375	-1369.93505859375	507.9214477539062	-534.7716064453125	-1363.294799804688	651.6219482421875	-567.2598876953125	-1454.523681640625	38.17354583740234	-523.042724609375	-1420.322875976562	286.7781372070312	-540.4961547851562	-1244.095092773438	45.90449142456055	-451.7410888671875	-1315.202514648438	42.21676635742188	-414.1585998535156	-1325.473754882812	38.98203659057617	-530.9757690429688	-1519.591552734375	44.66247177124023	-475.4404602050781	-1398.93603515625	519.4351196289062	-257.8095703125	-1381.58056640625	786.0850830078125	-206.0448303222656	-1477.420288085938	41.91756820678711	-297.4556274414062	-1392.610229492188	402.0294494628906	-277.7093811035156	-1262.281616210938	46.80516052246094	-319.1202697753906	-1313.870361328125	41.98972702026367	-367.5765991210938	-1369.133056640625	42.81161499023438	-261.2865295410156	-1533.518798828125	38.06405258178711	-361.3531799316406	
152	1.51	-1513.592407226562	1058.290893554688	-338.1213989257812	-1495.706787109375	1063.093505859375	-457.0206909179688	-1503.204956054688	1135.84423828125	-415.7936706542969	-1261.282348632812	1318.309204101562	-388.0094909667969	-1511.160034179688	1263.322631835938	-413.6097106933594	-1447.043579101562	1523.872314453125	-413.586669921875	-1284.04296875	1436.16748046875	-390.9271850585938	-1532.959838867188	1387.478515625	-347.5188293457031	-1454.979248046875	1484.679443359375	-525.2459716796875	-1360.57275390625	1482.813598632812	-570.83837890625	-1381.949462890625	1362.584228515625	-648.2171020507812	-1362.504150390625	1151.875366210938	-669.0298461914062	-1440.66650390625	1136.240966796875	-633.2901611328125	-1283.692749023438	918.4664306640625	-593.6309204101562	-1294.769653320312	900.980712890625	-675.9503784179688	-1338.430908203125	1044.5888671875	-677.1109008789062	-1278.599487304688	723.3873291015625	-596.5177612304688	-1276.936767578125	813.175048828125	-669.2603149414062	-1243.601318359375	818.5938110351562	-608.8380126953125	-1410.588623046875	1485.72021484375	-236.743408203125	-1437.595458984375	1421.430786132812	-172.1339263916016	-1463.591674804688	1139.745971679688	-135.2500457763672	-1488.45751953125	1134.3349609375	-227.2757263183594	-1322.734008789062	925.1741943359375	-169.5494232177734	-1381.324584960938	910.1597290039062	-109.0562973022461	-1437.857666015625	1071.048461914062	-120.7925109863281	-1307.772094726562	732.8712768554688	-176.3343048095703	-1284.244506835938	804.3406982421875	-152.1058044433594	-1339.637451171875	804.1719360351562	-104.4890823364258	-1420.7099609375	1675.8369140625	-374.3752746582031	-1201.99951171875	1725.471923828125	-411.6499633789062	-1229.473754882812	1723.527709960938	-315.5099487304688	-1341.6171875	1685.29052734375	-489.7315673828125	-1380.467651367188	995.2592163085938	-583.4935302734375	-1431.32763671875	1013.444213867188	-218.8250732421875	-1329.777954101562	1052.891723632812	-244.3465881347656	-1283.978393554688	1032.455688476562	-523.0441284179688	-1369.636596679688	507.9772338867188	-534.604248046875	-1363.027465820312	651.7235107421875	-566.9729614257812	-1454.521118164062	38.11425399780273	-523.1422119140625	-1420.201049804688	286.8289184570312	-540.4371337890625	-1244.148193359375	46.0123291015625	-451.8734436035156	-1315.281860351562	42.33012390136719	-414.2894897460938	-1325.483764648438	38.91366577148438	-531.0326538085938	-1519.671020507812	44.6960334777832	-475.5236206054688	-1397.057006835938	519.6023559570312	-257.8810729980469	-1381.076171875	785.984130859375	-205.7723999023438	-1477.388427734375	41.95270538330078	-297.4604797363281	-1391.084838867188	401.7339477539062	-277.5576171875	-1262.2802734375	46.81049346923828	-319.1331787109375	-1313.864868164062	41.97459411621094	-367.61962890625	-1369.09228515625	42.8304557800293	-261.31005859375	-1533.500244140625	38.08844757080078	-361.3624877929688	
153	1.52	-1513.547241210938	1058.18603515625	-337.7525939941406	-1495.591186523438	1063.083618164062	-456.6136169433594	-1503.089721679688	1135.903686523438	-415.3990478515625	-1260.912353515625	1318.162109375	-387.466552734375	-1510.857666015625	1263.408447265625	-413.1691284179688	-1446.473754882812	1523.86865234375	-413.0039672851562	-1283.619873046875	1436.00732421875	-390.3471374511719	-1532.562744140625	1387.550537109375	-347.037109375	-1454.425170898438	1484.761474609375	-524.693115234375	-1359.99462890625	1482.828247070312	-570.2508544921875	-1381.43505859375	1362.676635742188	-647.7177734375	-1362.078369140625	1152.0029296875	-668.6749267578125	-1440.269897460938	1136.34033203125	-633.005859375	-1283.463623046875	918.4700317382812	-593.4722290039062	-1294.411254882812	901.0895385742188	-675.793212890625	-1338.000244140625	1044.703857421875	-676.8353881835938	-1278.374633789062	723.5138549804688	-596.4867553710938	-1276.534545898438	813.27685546875	-669.130859375	-1243.257202148438	818.6451416015625	-608.6561279296875	-1410.134887695312	1485.628662109375	-236.1828002929688	-1437.208618164062	1421.328247070312	-171.6088714599609	-1463.358154296875	1139.634399414062	-134.8548583984375	-1488.377685546875	1134.309204101562	-226.96533203125	-1322.384155273438	925.1298828125	-169.3792114257812	-1381.201782226562	910.0137939453125	-108.9410552978516	-1437.7080078125	1070.920532226562	-120.4928588867188	-1307.606811523438	732.8390502929688	-176.3856811523438	-1284.0458984375	804.2982788085938	-152.0057983398438	-1339.46435546875	804.06591796875	-104.4550476074219	-1419.851928710938	1675.899291992188	-373.7278747558594	-1201.07763671875	1725.060668945312	-411.1215209960938	-1228.46923828125	1723.2578125	-314.9900512695312	-1340.790771484375	1685.176147460938	-489.1476440429688	-1380.349365234375	995.3414916992188	-583.0924072265625	-1431.365112304688	1013.317687988281	-218.4508666992188	-1329.764404296875	1052.786865234375	-243.9287261962891	-1283.733642578125	1032.469970703125	-522.5625610351562	-1369.244506835938	508.0322570800781	-534.380859375	-1362.676635742188	651.8258056640625	-566.6209716796875	-1454.518310546875	38.05804824829102	-523.2423706054688	-1420.050048828125	286.8809204101562	-540.3621215820312	-1244.213623046875	46.13255310058594	-452.0047607421875	-1315.347045898438	42.42853546142578	-414.4075012207031	-1325.488891601562	38.8548583984375	-531.0811157226562	-1519.740112304688	44.72662353515625	-475.5969543457031	-1395.08447265625	519.7386474609375	-257.904296875	-1380.487670898438	785.82373046875	-205.5891723632812	-1477.346923828125	41.99095916748047	-297.4562683105469	-1389.43359375	401.4309997558594	-277.40185546875	-1262.279418945312	46.81631088256836	-319.1512145996094	-1313.845825195312	41.9524040222168	-367.6654663085938	-1369.04833984375	42.8507194519043	-261.3436584472656	-1533.484008789062	38.11592864990234	-361.37109375	
